<svg width="98" height="30" viewBox="0 0 98 30" fill="none" xmlns="http://www.w3.org/2000/svg">
<g clip-path="url(#clip0_1_4686)">
<path d="M28.289 21.2617C28.1369 20.896 27.9944 20.5117 27.8423 20.1835L27.139 18.6179L27.1105 18.5898C25.0196 14.0898 22.7861 9.51478 20.4196 5.01478L20.3246 4.82728C20.087 4.38665 19.8494 3.89915 19.6023 3.44915C19.2982 2.91478 19.0035 2.3429 18.5188 1.79915C18.0464 1.23022 17.4517 0.771831 16.7779 0.457081C16.104 0.142331 15.3678 -0.0209351 14.6222 -0.0209351C13.8766 -0.0209351 13.1403 0.142331 12.4665 0.457081C11.7926 0.771831 11.198 1.23022 10.7255 1.79915C10.2788 2.3429 9.94619 2.91478 9.64206 3.44915C9.40446 3.93665 9.16686 4.41478 8.91975 4.8554L8.82471 5.0429C6.49622 9.5429 4.22476 14.1179 2.13387 18.6179L2.07685 18.6742C1.86776 19.1617 1.62065 19.6679 1.38305 20.2117C1.23099 20.5398 1.07892 20.896 0.926858 21.2898C0.516314 22.3208 0.385215 23.4396 0.54648 24.5359C0.707745 25.6321 1.15581 26.668 1.84651 27.5414C2.53721 28.4148 3.44672 29.0956 4.48538 29.5168C5.52405 29.9379 6.65603 30.0847 7.76976 29.9429C8.83751 29.8043 9.86567 29.4534 10.792 28.9117C12.0276 28.2273 13.2156 27.2335 14.5461 25.7992C15.8767 27.2335 17.0932 28.2273 18.3002 28.921C19.461 29.5931 20.7754 29.964 22.1209 29.9992C23.6789 30.0055 25.1867 29.4557 26.3658 28.4511C27.545 27.4465 28.3158 26.055 28.5361 24.5335C28.7906 23.4402 28.7045 22.2965 28.289 21.2523V21.2617ZM14.6412 22.8179C13.0065 20.7554 11.942 18.8617 11.5809 17.2398C11.4313 16.6388 11.399 16.0152 11.4858 15.4023C11.5524 14.9242 11.7329 14.5023 11.9801 14.146C12.5503 13.3304 13.5482 12.8242 14.6412 12.8242C15.1602 12.8085 15.6751 12.9202 16.1396 13.1493C16.604 13.3784 17.0036 13.7177 17.3023 14.1367C17.5494 14.5117 17.73 14.9242 17.787 15.4023C17.8821 15.946 17.844 16.5742 17.692 17.2398C17.3308 18.8335 16.2664 20.746 14.6412 22.8179ZM26.7493 24.2054C26.6413 24.9779 26.3301 25.7089 25.8465 26.3257C25.3629 26.9426 24.7239 27.4236 23.9932 27.721C23.2708 28.021 22.4725 28.1054 21.6932 28.021C20.9329 27.9273 20.1725 27.6835 19.3932 27.2335C18.0992 26.4446 16.9357 25.4645 15.9432 24.3273C17.9391 21.8898 19.1461 19.6679 19.6023 17.6898C19.8209 16.7523 19.8494 15.9085 19.7544 15.1304C19.6357 14.3929 19.3569 13.6893 18.937 13.0679C18.4576 12.3941 17.8178 11.8468 17.0737 11.474C16.3296 11.1013 15.5041 10.9146 14.6697 10.9304C12.9114 10.9304 11.3433 11.7367 10.3929 13.0585C9.96504 13.6784 9.68854 14.3875 9.58504 15.1304C9.46148 15.9179 9.49 16.7898 9.7371 17.6898C10.1933 19.6679 11.4288 21.9179 13.3962 24.346C12.4205 25.5049 11.2543 26.4937 9.94619 27.271C9.15735 27.721 8.40654 27.9554 7.64621 28.0492C6.4638 28.1986 5.26939 27.8816 4.32261 27.1671C3.37583 26.4526 2.7532 25.3984 2.59006 24.2335C2.49502 23.4835 2.56155 22.7335 2.86568 21.8898C2.96072 21.5898 3.10328 21.2898 3.25535 20.9335C3.46444 20.446 3.71154 19.9398 3.94914 19.4335L3.98716 19.3679C6.04003 14.896 8.28298 10.3304 10.6115 5.85853L10.7065 5.67103C10.9441 5.22103 11.1817 4.7429 11.4288 4.2929C11.6759 3.81478 11.942 3.3554 12.2842 2.9804C12.5803 2.63167 12.9504 2.35122 13.3683 2.1588C13.7862 1.96637 14.2418 1.86664 14.703 1.86664C15.1641 1.86664 15.6197 1.96637 16.0376 2.1588C16.4555 2.35122 16.8256 2.63167 17.1217 2.9804C17.4544 3.3554 17.73 3.81478 17.9771 4.2929C18.2147 4.7429 18.4523 5.2304 18.6994 5.67103L18.7944 5.85853C21.1134 10.3304 23.3564 14.896 25.4473 19.3679L25.4758 19.396C25.7229 19.8835 25.932 20.4273 26.1696 20.896C26.3216 21.2617 26.4737 21.5523 26.5688 21.8617C26.7493 22.7054 26.8444 23.4554 26.7493 24.2054ZM39.9789 22.6117C39.2628 22.622 38.5534 22.4731 37.9036 22.1761C37.2537 21.8791 36.6799 21.4416 36.2249 20.896C35.2023 19.7335 34.6596 18.2345 34.7042 16.696C34.6886 15.124 35.2488 13.5993 36.2819 12.4023C36.7597 11.8497 37.3546 11.4072 38.0245 11.106C38.6945 10.8047 39.4233 10.652 40.1595 10.6585C40.8523 10.6398 41.5385 10.7952 42.1537 11.1101C42.7688 11.425 43.2927 11.889 43.676 12.4585L43.7711 10.9867H46.5462V22.3117H43.7616L43.6665 20.6617C43.2713 21.2698 42.7251 21.7681 42.0797 22.1094C41.4343 22.4507 40.7111 22.6236 39.9789 22.6117ZM40.7013 19.9117C41.2525 19.9117 41.7372 19.7617 42.1934 19.4898C42.6116 19.1898 42.9537 18.796 43.2198 18.3179C43.4574 17.8398 43.581 17.2679 43.581 16.6304C43.618 16.0767 43.5088 15.523 43.2639 15.0235C43.019 14.5239 42.6469 14.0956 42.1839 13.7804C41.739 13.507 41.2254 13.3621 40.7013 13.3621C40.1771 13.3621 39.6635 13.507 39.2186 13.7804C38.8004 14.0804 38.4583 14.4742 38.1922 14.9523C37.9409 15.4796 37.8172 16.0573 37.831 16.6398C37.794 17.1935 37.9032 17.7472 38.1481 18.2467C38.393 18.7463 38.7651 19.1746 39.2281 19.4898C39.6748 19.7617 40.1595 19.9117 40.7013 19.9117ZM51.2983 7.9304C51.2983 8.25853 51.2412 8.55853 51.0892 8.80228C50.9371 9.03666 50.728 9.25228 50.4524 9.40228C50.1768 9.55228 49.8822 9.60853 49.578 9.60853C49.2739 9.60853 48.9698 9.55228 48.6941 9.40228C48.4335 9.25913 48.2143 9.05259 48.0574 8.80228C47.9102 8.53522 47.838 8.23421 47.8483 7.9304C47.8483 7.5929 47.9148 7.2929 48.0574 7.05853C48.2094 6.77728 48.428 6.60853 48.6941 6.45853C48.9698 6.30853 49.2644 6.2429 49.578 6.2429C49.8805 6.23603 50.1797 6.3067 50.4462 6.44802C50.7128 6.58934 50.9376 6.79647 51.0987 7.04915C51.237 7.32248 51.3055 7.625 51.2983 7.9304ZM48.0669 22.2742V10.9679H51.0892V22.2929H48.0574L48.0669 22.2742ZM59.1676 13.9304V13.9679C59.025 13.9023 58.835 13.8742 58.6924 13.846C58.5023 13.8085 58.3503 13.8085 58.1697 13.8085C57.3238 13.8085 56.687 14.0523 56.2689 14.5585C55.8127 15.0742 55.6036 15.796 55.6036 16.7242V22.2835H52.5718V10.9585H55.3565L55.4515 12.6742C55.7556 12.0742 56.1168 11.6242 56.63 11.2867C57.1405 10.9587 57.7415 10.795 58.3503 10.8179C58.5688 10.8179 58.7779 10.8367 58.9585 10.8742C59.0535 10.9023 59.1106 10.9023 59.1676 10.9304V13.9304ZM60.3841 22.2742V6.3179H63.4064V12.4117C63.8341 11.8679 64.3188 11.446 64.927 11.1179C65.89 10.6522 66.9839 10.5201 68.0323 10.7429C69.0807 10.9657 70.0224 11.5305 70.7055 12.346C71.7303 13.511 72.2732 15.0137 72.2262 16.5554C72.2418 18.1274 71.6816 19.6521 70.6485 20.8492C70.1706 21.4017 69.5758 21.8442 68.9058 22.1455C68.2359 22.4467 67.5071 22.5995 66.7708 22.5929C66.0781 22.6116 65.3918 22.4562 64.7767 22.1413C64.1615 21.8265 63.6377 21.3624 63.2543 20.7929L63.1593 22.2648L60.3841 22.2929V22.2742ZM66.2291 19.9117C66.7708 19.9117 67.2555 19.7617 67.7117 19.4898C68.1299 19.1898 68.4721 18.796 68.7382 18.3179C68.9853 17.8398 69.0993 17.2679 69.0993 16.6304C69.0993 16.0023 68.9853 15.4304 68.7382 14.9523C68.4886 14.4912 68.1379 14.0909 67.7117 13.7804C67.2669 13.507 66.7532 13.3621 66.2291 13.3621C65.705 13.3621 65.1913 13.507 64.7465 13.7804C64.3188 14.0804 63.9862 14.4742 63.7105 14.9523C63.4592 15.4796 63.3356 16.0573 63.3494 16.6398C63.3123 17.1935 63.4216 17.7472 63.6665 18.2467C63.9114 18.7463 64.2835 19.1746 64.7465 19.4898C65.1932 19.7617 65.6779 19.9117 66.2291 19.9117ZM73.3666 22.2835V10.9585H76.1513L76.2464 12.4304C76.5963 11.8662 77.0927 11.4045 77.6842 11.093C78.2757 10.7814 78.9408 10.6315 79.6108 10.6585C80.3769 10.6455 81.1299 10.8555 81.7757 11.2624C82.4214 11.6692 82.9312 12.2549 83.2413 12.946C83.574 13.6585 83.7545 14.5398 83.7545 15.5242V22.3117H80.7228V15.9179C80.7228 15.1304 80.5422 14.5117 80.181 14.0523C79.8199 13.6023 79.3257 13.3585 78.6984 13.3585C78.2422 13.3585 77.843 13.4523 77.4914 13.6585C77.1587 13.8742 76.8831 14.146 76.674 14.5304C76.4626 14.9189 76.3578 15.3552 76.3699 15.796V22.2835H73.3666ZM85.2657 22.2835V6.30853H88.2975V12.4023C88.7081 11.8555 89.2423 11.4107 89.8577 11.1031C90.4731 10.7955 91.1526 10.6337 91.8425 10.6304C92.5586 10.6201 93.268 10.7689 93.9179 11.0659C94.5678 11.3629 95.1415 11.8004 95.5966 12.346C96.6141 13.5109 97.1531 15.009 97.1077 16.546C97.1242 18.1182 96.5639 19.6432 95.53 20.8398C95.0522 21.3923 94.4573 21.8348 93.7874 22.1361C93.1174 22.4374 92.3887 22.5901 91.6524 22.5835C90.9596 22.6022 90.2734 22.4468 89.6582 22.132C89.0431 21.8171 88.5192 21.3531 88.1359 20.7835L88.0504 22.2554L85.2657 22.2835ZM91.1392 19.9117C91.6904 19.9117 92.1751 19.7617 92.6218 19.4898C93.0495 19.1898 93.3821 18.796 93.6578 18.3179C93.8954 17.8398 94.0189 17.2679 94.0189 16.6304C94.056 16.0767 93.9467 15.523 93.7018 15.0235C93.4569 14.5239 93.0848 14.0956 92.6218 13.7804C92.177 13.507 91.6633 13.3621 91.1392 13.3621C90.6151 13.3621 90.1014 13.507 89.6566 13.7804C89.2384 14.0804 88.8962 14.4742 88.6301 14.9523C88.3648 15.4749 88.2405 16.056 88.269 16.6398C88.2319 17.1935 88.3412 17.7472 88.5861 18.2467C88.8309 18.7463 89.2031 19.1746 89.6661 19.4898C90.1127 19.7617 90.5689 19.9117 91.1392 19.9117Z" fill="#FF385C"/>
</g>
<defs>
<clipPath id="clip0_1_4686">
<rect width="96.9412" height="30" fill="white" transform="translate(0.5 0.00012207)"/>
</clipPath>
</defs>
</svg>
