<svg width="98" height="30" viewBox="0 0 98 30" fill="none" xmlns="http://www.w3.org/2000/svg">
<g clip-path="url(#clip0_1_4690)">
<path fill-rule="evenodd" clip-rule="evenodd" d="M60.6402 23.461C55.0068 27.7251 46.8415 30.0001 39.8114 30.0001C29.9539 30.0001 21.0797 26.2561 14.3661 20.029C13.8386 19.5393 14.3112 18.872 14.9442 19.2533C22.1895 23.5824 31.1481 26.1867 40.4021 26.1867C46.6432 26.1867 53.5088 24.8607 59.8216 22.109C60.7753 21.693 61.5728 22.7504 60.6402 23.461Z" fill="#FF9900"/>
<path fill-rule="evenodd" clip-rule="evenodd" d="M62.9829 20.7094C62.2656 19.7647 58.223 20.2631 56.4085 20.4841C55.8557 20.5534 55.7713 20.0594 56.2693 19.704C59.489 17.377 64.7721 18.0487 65.3882 18.8287C66.0043 19.613 65.2279 25.0514 62.2023 27.6471C61.7381 28.0458 61.295 27.8335 61.5018 27.3048C62.1812 25.5628 63.7045 21.6584 62.9829 20.7094Z" fill="#FF9900"/>
<path fill-rule="evenodd" clip-rule="evenodd" d="M56.5349 3.27617V1.01414C56.5349 0.671807 56.7881 0.442139 57.0919 0.442139H66.9535C67.27 0.442139 67.5232 0.676141 67.5232 1.01414V2.95116C67.519 3.27617 67.2531 3.70084 66.7805 4.37251L61.6703 11.8649C63.5693 11.8173 65.5737 12.1076 67.2953 13.1043C67.6835 13.3296 67.789 13.6589 67.8186 13.9839V16.3976C67.8186 16.727 67.4641 17.1126 67.0928 16.9133C64.0587 15.2796 60.0288 15.102 56.6741 16.9306C56.3323 17.1213 55.9736 16.74 55.9736 16.4106V14.1183C55.9736 13.7499 55.9778 13.1216 56.3365 12.5626L62.2569 3.84384H57.1045C56.788 3.84384 56.5349 3.61417 56.5349 3.27617Z" fill="#1D1E25"/>
<path fill-rule="evenodd" clip-rule="evenodd" d="M20.5606 17.39H17.5603C17.2734 17.3683 17.0455 17.1473 17.0244 16.8656V1.05314C17.0244 0.736803 17.2818 0.485465 17.6025 0.485465H20.4002C20.6914 0.498457 20.9235 0.728134 20.9446 1.01414V3.08116H20.9995C21.7295 1.08347 23.1009 0.151794 24.9492 0.151794C26.827 0.151794 28.0001 1.08347 28.844 3.08116C29.5698 1.08347 31.2198 0.151794 32.9879 0.151794C34.2454 0.151794 35.621 0.6848 36.4608 1.88081C37.4102 3.21116 37.2161 5.14384 37.2161 6.8382L37.2119 16.818C37.2119 17.1343 36.9545 17.39 36.6338 17.39H33.6377C33.3381 17.3683 33.0976 17.1213 33.0976 16.818V8.43721C33.0976 7.76987 33.1567 6.10586 33.0132 5.47318C32.7895 4.41151 32.1186 4.1125 31.2493 4.1125C30.5235 4.1125 29.764 4.61084 29.4559 5.40818C29.1479 6.20552 29.1774 7.5402 29.1774 8.43721V16.818C29.1774 17.1343 28.92 17.39 28.5993 17.39H25.6032C25.2994 17.3683 25.0631 17.1213 25.0631 16.818L25.0589 8.43721C25.0589 6.67353 25.3416 4.07783 23.2106 4.07783C21.0543 4.07783 21.1387 6.60852 21.1387 8.43721V16.818C21.1387 17.1343 20.8813 17.39 20.5606 17.39" fill="#1D1E25"/>
<path fill-rule="evenodd" clip-rule="evenodd" d="M76.0134 0.151794C80.4653 0.151794 82.8748 4.07784 82.8748 9.06989C82.8748 13.8929 80.2121 17.7193 76.0134 17.7193C71.6417 17.7193 69.2617 13.7933 69.2617 8.90089C69.2617 3.97817 71.6712 0.151794 76.0134 0.151794ZM76.0387 3.38016C73.8275 3.38016 73.6883 6.47419 73.6883 8.40255C73.6883 10.3352 73.6587 14.4606 76.0134 14.4606C78.3385 14.4606 78.4482 11.1326 78.4482 9.10455C78.4482 7.76987 78.3934 6.17519 78.0009 4.90984C77.6633 3.80917 76.9924 3.38016 76.0387 3.38016Z" fill="#1D1E25"/>
<path fill-rule="evenodd" clip-rule="evenodd" d="M88.6472 17.39H85.6596C85.36 17.3683 85.1194 17.1213 85.1194 16.818L85.1152 1.00114C85.1406 0.7108 85.3895 0.485465 85.6933 0.485465H88.4742C88.7358 0.498457 88.951 0.680467 89.0101 0.92747V3.34549H89.065C89.9047 1.18314 91.082 0.151794 93.1539 0.151794C94.5 0.151794 95.8124 0.650134 96.6563 2.01515C97.4412 3.28049 97.4412 5.40818 97.4412 6.93786V16.8916C97.4075 17.169 97.1585 17.39 96.8631 17.39H93.8544C93.5801 17.3683 93.3523 17.1603 93.3227 16.8916V8.30288C93.3227 6.57386 93.5168 4.04317 91.4449 4.04317C90.7149 4.04317 90.0439 4.54584 89.7106 5.30851C89.2886 6.27486 89.2337 7.23687 89.2337 8.30288V16.818C89.2295 17.1343 88.9679 17.39 88.6472 17.39" fill="#1D1E25"/>
<path fill-rule="evenodd" clip-rule="evenodd" d="M48.6735 9.83689C48.6735 11.0372 48.703 12.0382 48.1122 13.1043C47.6354 13.9709 46.8758 14.5039 46.0361 14.5039C44.8841 14.5039 44.2089 13.6026 44.2089 12.2723C44.2089 9.64622 46.5003 9.16955 48.6735 9.16955V9.83689ZM51.6991 17.3466C51.5007 17.5286 51.2138 17.5416 50.9901 17.4203C49.9943 16.571 49.8128 16.1766 49.2685 15.3663C47.6227 17.091 46.4539 17.6066 44.3229 17.6066C41.7952 17.6066 39.833 16.0076 39.833 12.8053C39.833 10.3049 41.1496 8.60188 43.0316 7.76987C44.6604 7.03319 46.9349 6.9032 48.6735 6.69953V6.30086C48.6735 5.56851 48.7283 4.70184 48.3063 4.06917C47.9434 3.50149 47.243 3.26749 46.6226 3.26749C45.4791 3.26749 44.4621 3.86983 44.2131 5.11784C44.1625 5.39518 43.9642 5.66818 43.6899 5.68118L40.7825 5.36051C40.5377 5.30418 40.2634 5.10051 40.3352 4.71484C41.0019 1.09214 44.1921 0.00012207 47.0446 0.00012207C48.5047 0.00012207 50.412 0.398794 51.564 1.53414C53.0241 2.93382 52.8848 4.80151 52.8848 6.83386V11.6352C52.8848 13.0783 53.4671 13.7109 54.0157 14.4909C54.2056 14.7683 54.2478 15.1019 54.0031 15.3099C53.3912 15.8343 52.3025 16.8093 51.7033 17.3553L51.699 17.3466" fill="#1D1E25"/>
<path fill-rule="evenodd" clip-rule="evenodd" d="M9.34046 9.83713C9.34046 11.0375 9.36999 12.0385 8.77922 13.1045C8.30238 13.9712 7.54704 14.5042 6.70309 14.5042C5.55108 14.5042 4.88014 13.6028 4.88014 12.2725C4.88014 9.64647 7.17148 9.1698 9.34046 9.1698V9.83713ZM12.366 17.3469C12.1677 17.5289 11.8808 17.5419 11.6571 17.4205C10.6612 16.5712 10.484 16.1769 9.93544 15.3665C8.28973 17.0912 7.12507 17.6069 4.98985 17.6069C2.46642 17.6069 0.5 16.0079 0.5 12.8055C0.5 10.3051 1.82079 8.60212 3.6986 7.77011C5.32744 7.03344 7.6019 6.90344 9.34046 6.69977V6.3011C9.34046 5.56876 9.39531 4.70208 8.97755 4.06941C8.61043 3.50174 7.90995 3.26773 7.29386 3.26773C6.1503 3.26773 5.12911 3.87007 4.88014 5.11808C4.8295 5.39542 4.63117 5.66843 4.36111 5.68143L1.44945 5.36075C1.2047 5.30442 0.934637 5.10075 1.00215 4.71508C1.6731 1.09238 4.85904 0.000366211 7.71162 0.000366211C9.17166 0.000366211 11.079 0.399038 12.231 1.53438C13.6911 2.93406 13.5518 4.80175 13.5518 6.8341V11.6355C13.5518 13.0785 14.1341 13.7112 14.6827 14.4912C14.8768 14.7685 14.919 15.1022 14.6743 15.3102C14.0624 15.8345 12.9737 16.8095 12.3745 17.3555L12.366 17.3469" fill="#1D1E25"/>
</g>
<defs>
<clipPath id="clip0_1_4690">
<rect width="96.9412" height="30" fill="white" transform="translate(0.5 0.00012207)"/>
</clipPath>
</defs>
</svg>
