<svg width="90" height="30" viewBox="0 0 90 30" fill="none" xmlns="http://www.w3.org/2000/svg">
<g clip-path="url(#clip0_1_4718)">
<path d="M38.3136 15.3849C38.3136 19.549 35.0297 22.6175 30.9996 22.6175C26.9695 22.6175 23.6855 19.549 23.6855 15.3849C23.6855 11.1914 26.9695 8.15228 30.9996 8.15228C35.0297 8.15228 38.3136 11.1914 38.3136 15.3849ZM35.1118 15.3849C35.1118 12.7827 33.2086 11.0023 30.9996 11.0023C28.7906 11.0023 26.8873 12.7827 26.8873 15.3849C26.8873 17.961 28.7906 19.7675 30.9996 19.7675C33.2086 19.7675 35.1118 17.9577 35.1118 15.3849Z" fill="#EA4335"/>
<path d="M54.0929 15.3849C54.0929 19.549 50.809 22.6175 46.7789 22.6175C42.7488 22.6175 39.4648 19.549 39.4648 15.3849C39.4648 11.1947 42.7488 8.15228 46.7789 8.15228C50.809 8.15228 54.0929 11.1914 54.0929 15.3849ZM50.8911 15.3849C50.8911 12.7827 48.9879 11.0023 46.7789 11.0023C44.5699 11.0023 42.6666 12.7827 42.6666 15.3849C42.6666 17.961 44.5699 19.7675 46.7789 19.7675C48.9879 19.7675 50.8911 17.9577 50.8911 15.3849Z" fill="#FBBC05"/>
<path d="M69.2135 8.58924V21.574C69.2135 26.9153 66.0381 29.0968 62.2841 29.0968C58.7503 29.0968 56.6235 26.7523 55.8214 24.8349L58.609 23.6838C59.1054 24.861 60.3216 26.2501 62.2808 26.2501C64.6837 26.2501 66.1728 24.7795 66.1728 22.011V20.9708H66.0611C65.3445 21.8479 63.9638 22.6142 62.2216 22.6142C58.5761 22.6142 55.2363 19.4642 55.2363 15.411C55.2363 11.3284 58.5761 8.15228 62.2216 8.15228C63.9606 8.15228 65.3412 8.91859 66.0611 9.76967H66.1728V8.5925H69.2135V8.58924ZM66.3997 15.411C66.3997 12.8642 64.687 11.0023 62.5076 11.0023C60.2986 11.0023 58.4479 12.8642 58.4479 15.411C58.4479 17.9316 60.2986 19.7675 62.5076 19.7675C64.687 19.7675 66.3997 17.9316 66.3997 15.411Z" fill="#4285F4"/>
<path d="M74.2263 0.978394V22.174H71.1035V0.978394H74.2263Z" fill="#34A853"/>
<path d="M86.396 17.7654L88.8812 19.4088C88.0791 20.586 86.1462 22.6143 82.8064 22.6143C78.6645 22.6143 75.5713 19.4382 75.5713 15.3817C75.5713 11.0806 78.6908 8.14905 82.4481 8.14905C86.2317 8.14905 88.0824 11.136 88.6872 12.7501L89.0192 13.5719L79.2727 17.5762C80.0189 19.0273 81.1793 19.7675 82.8064 19.7675C84.4369 19.7675 85.5677 18.9719 86.396 17.7654ZM78.7467 15.1632L85.262 12.4795C84.9036 11.5762 83.8254 10.9469 82.5566 10.9469C80.9294 10.9469 78.6645 12.3719 78.7467 15.1632Z" fill="#EA4335"/>
<path d="M11.865 13.5034V10.4349H22.2887C22.3906 10.9697 22.4432 11.6023 22.4432 12.2871C22.4432 14.5893 21.8088 17.436 19.7641 19.4643C17.7754 21.5186 15.2344 22.6143 11.8683 22.6143C5.62918 22.6143 0.382812 17.5729 0.382812 11.3838C0.382812 5.19469 5.62918 0.153381 11.8683 0.153381C15.3198 0.153381 17.7787 1.49686 19.6261 3.24795L17.4434 5.41316C16.1186 4.18056 14.3238 3.22186 11.865 3.22186C7.30894 3.22186 3.74562 6.86425 3.74562 11.3838C3.74562 15.9034 7.30894 19.5458 11.865 19.5458C14.8202 19.5458 16.5032 18.3686 17.5814 17.299C18.4558 16.4316 19.0311 15.1925 19.2579 13.5001L11.865 13.5034Z" fill="#4285F4"/>
</g>
<defs>
<clipPath id="clip0_1_4718">
<rect width="89.4118" height="30" fill="white" transform="translate(0.264648 0.00012207)"/>
</clipPath>
</defs>
</svg>
