<svg width="115" height="26" viewBox="0 0 115 26" fill="none" xmlns="http://www.w3.org/2000/svg">
<g clip-path="url(#clip0_1_4709)">
<path d="M40.618 14.8519L39.9336 16.7792H39.8766C39.7625 16.3446 39.5534 15.6833 39.2112 14.8897L35.5422 5.72542H31.9492V20.3315H34.3255V11.3184C34.3255 10.7516 34.3255 10.1091 34.3065 9.31554C34.2875 8.91874 34.2495 8.61641 34.2305 8.38967H34.2875C34.4016 8.95653 34.5346 9.37222 34.6297 9.63676L39.0401 20.2937H40.7131L45.0855 9.54228C45.1805 9.29664 45.2756 8.80536 45.3706 8.38967H45.4277C45.3706 9.4667 45.3326 10.4304 45.3136 11.0161V20.2748H47.842V5.68763H44.3821L40.618 14.8519ZM50.2373 9.80682H52.7087V20.2748H50.2373V9.80682ZM51.492 5.38531C51.0738 5.38531 50.7316 5.53647 50.4464 5.801C50.1613 6.06554 50.0092 6.40565 50.0092 6.82135C50.0092 7.21815 50.1613 7.55827 50.4464 7.8228C50.7316 8.08734 51.0738 8.21961 51.492 8.21961C51.9103 8.21961 52.2715 8.06844 52.5376 7.8228C52.8228 7.55827 52.9749 7.21815 52.9749 6.82135C52.9749 6.42455 52.8228 6.08443 52.5376 5.801C52.2905 5.53647 51.9293 5.38531 51.492 5.38531ZM61.4725 9.71234C61.0163 9.61786 60.541 9.56118 60.0848 9.56118C58.9632 9.56118 57.9366 9.80682 57.0811 10.2981C56.2256 10.7894 55.5413 11.4696 55.104 12.3199C54.6478 13.1891 54.4196 14.1905 54.4196 15.3432C54.4196 16.3446 54.6478 17.2327 55.085 18.0452C55.5223 18.8388 56.1306 19.4812 56.948 19.9158C57.7275 20.3504 58.64 20.5772 59.6665 20.5772C60.8452 20.5772 61.8528 20.3315 62.6512 19.878L62.6702 19.8591V17.5917L62.5752 17.6673C62.214 17.9318 61.7957 18.1586 61.3775 18.2908C60.9403 18.442 60.541 18.5176 60.1988 18.5176C59.2103 18.5176 58.4309 18.2341 57.8796 17.6106C57.3092 17.0059 57.0241 16.1746 57.0241 15.1353C57.0241 14.0583 57.3092 13.208 57.8986 12.5844C58.4879 11.9609 59.2673 11.6397 60.2179 11.6397C61.0163 11.6397 61.8338 11.9042 62.5752 12.4333L62.6702 12.5089V10.1091L62.6512 10.0902C62.328 9.95798 61.9668 9.80682 61.4725 9.71234ZM69.6281 9.63676C69.0197 9.63676 68.4494 9.82571 67.9551 10.2225C67.5369 10.5626 67.2517 11.0539 67.0046 11.6397H66.9856V9.80682H64.5142V20.2748H66.9856V14.9275C66.9856 14.0205 67.1757 13.2647 67.5939 12.7167C68.0122 12.1498 68.5445 11.8664 69.1908 11.8664C69.4189 11.8664 69.6471 11.9231 69.9322 11.9609C70.1984 12.0365 70.3885 12.112 70.5216 12.2065L70.6166 12.2821V9.82571L70.5596 9.80682C70.3885 9.69344 70.0463 9.63676 69.6281 9.63676ZM76.3578 9.58007C74.6278 9.58007 73.2401 10.0902 72.2705 11.0917C71.282 12.0932 70.8067 13.4725 70.8067 15.2109C70.8067 16.8359 71.301 18.1586 72.2515 19.1222C73.202 20.067 74.4948 20.5583 76.1106 20.5583C77.8026 20.5583 79.1523 20.0481 80.1219 19.0277C81.1104 18.0074 81.5857 16.6469 81.5857 14.9652C81.5857 13.3025 81.1294 11.9798 80.1979 11.0161C79.3044 10.0525 77.9927 9.58007 76.3578 9.58007ZM78.3349 17.6295C77.8786 18.2152 77.1562 18.4987 76.2627 18.4987C75.3692 18.4987 74.6468 18.2152 74.1336 17.5917C73.6203 17.0059 73.3731 16.1557 73.3731 15.0786C73.3731 13.9638 73.6393 13.1135 74.1336 12.5089C74.6468 11.9042 75.3502 11.6019 76.2437 11.6019C77.1182 11.6019 77.8026 11.8853 78.2969 12.4711C78.7911 13.0568 79.0573 13.9071 79.0573 15.0219C79.0193 16.1557 78.8101 17.0437 78.3349 17.6295ZM87.0987 14.1527C86.3193 13.8315 85.825 13.5859 85.5969 13.378C85.4068 13.1891 85.3117 12.9245 85.3117 12.5844C85.3117 12.301 85.4258 12.0176 85.711 11.8286C85.9961 11.6397 86.3193 11.5452 86.7946 11.5452C87.2128 11.5452 87.65 11.6208 88.0683 11.7341C88.4865 11.8475 88.8667 12.0176 89.1709 12.2443L89.2659 12.3199V10.0147L89.2089 9.99577C88.9237 9.8824 88.5435 9.76903 88.0873 9.67455C87.631 9.59897 87.2128 9.56118 86.8706 9.56118C85.6919 9.56118 84.7224 9.84461 83.962 10.4682C83.2016 11.0539 82.8404 11.8475 82.8404 12.7734C82.8404 13.2647 82.9164 13.6993 83.0875 14.0583C83.2586 14.4173 83.5057 14.7574 83.8479 15.0408C84.1901 15.3054 84.6844 15.6077 85.3688 15.8911C85.9391 16.1368 86.3763 16.3257 86.6425 16.4769C86.9086 16.628 87.0797 16.7981 87.2128 16.9304C87.3078 17.0815 87.3649 17.2705 87.3649 17.5161C87.3649 18.2152 86.8326 18.5554 85.749 18.5554C85.3307 18.5554 84.8935 18.4798 84.3802 18.3097C83.8669 18.1397 83.3917 17.894 82.9925 17.6106L82.8974 17.535V19.9347L82.9544 19.9536C83.3156 20.1237 83.7529 20.237 84.2852 20.3693C84.8175 20.4638 85.2927 20.5394 85.711 20.5394C86.9847 20.5394 88.0302 20.2559 88.7717 19.6324C89.5321 19.0277 89.9313 18.253 89.9313 17.2516C89.9313 16.5525 89.7412 15.9289 89.323 15.4565C88.7717 15.003 88.0873 14.5307 87.0987 14.1527ZM96.4519 9.58007C94.7219 9.58007 93.3342 10.0902 92.3646 11.0917C91.3951 12.0932 90.9008 13.4725 90.9008 15.2109C90.9008 16.8359 91.3951 18.1586 92.3456 19.1222C93.2962 20.067 94.5889 20.5583 96.2048 20.5583C97.8967 20.5583 99.2465 20.0481 100.216 19.0277C101.205 18.0074 101.68 16.6469 101.68 14.9652C101.68 13.3025 101.224 11.9798 100.292 11.0161C99.3985 10.0525 98.0868 9.58007 96.4519 9.58007ZM98.41 17.6295C97.9537 18.2152 97.2313 18.4987 96.3378 18.4987C95.4253 18.4987 94.7219 18.2152 94.2087 17.5917C93.6954 17.0059 93.4482 16.1557 93.4482 15.0786C93.4482 13.9638 93.7144 13.1135 94.2087 12.5089C94.7219 11.9042 95.4253 11.6019 96.3188 11.6019C97.1743 11.6019 97.8777 11.8853 98.372 12.4711C98.8662 13.0568 99.1324 13.9071 99.1324 15.0219C99.1324 16.1557 98.8853 17.0437 98.41 17.6295ZM114.892 11.8286V9.80682H112.402V6.70798L112.326 6.72687L109.968 7.426L109.911 7.4449V9.80682H106.185V8.48414C106.185 7.87949 106.337 7.40711 106.604 7.10478C106.87 6.80246 107.269 6.65129 107.763 6.65129C108.105 6.65129 108.467 6.72687 108.866 6.89693L108.961 6.95362V4.81844L108.904 4.79955C108.562 4.68618 108.105 4.6106 107.516 4.6106C106.775 4.6106 106.128 4.78065 105.539 5.06408C104.95 5.3853 104.512 5.8199 104.189 6.40565C103.866 6.97251 103.695 7.61496 103.695 8.35188V9.80682H101.965V11.8097H103.695V20.2748H106.185V11.8286H109.911V17.2138C109.911 19.4246 110.957 20.5394 113.048 20.5394C113.39 20.5394 113.751 20.4827 114.094 20.426C114.455 20.3504 114.721 20.2559 114.873 20.1804L114.892 20.1615V18.1397L114.797 18.2152C114.645 18.3097 114.512 18.3853 114.284 18.442C114.094 18.4987 113.923 18.5176 113.789 18.5176C113.295 18.5176 112.953 18.4042 112.706 18.1208C112.478 17.8562 112.364 17.4216 112.364 16.7792V11.8286H114.892Z" fill="#737373"/>
<path d="M0.0878906 0.812622H11.7413V12.3955H0.0878906V0.812622Z" fill="#F25022"/>
<path d="M12.958 0.812622H24.6115V12.3955H12.958V0.812622Z" fill="#7FBA00"/>
<path d="M0.0878906 13.6048H11.7413V25.1876H0.0878906V13.6048Z" fill="#00A4EF"/>
<path d="M12.958 13.6048H24.6115V25.1876H12.958V13.6048Z" fill="#FFB900"/>
</g>
<defs>
<clipPath id="clip0_1_4709">
<rect width="114.824" height="24.375" fill="white" transform="translate(0.0878906 0.812622)"/>
</clipPath>
</defs>
</svg>
