<svg width="93" height="32" viewBox="0 0 93 32" fill="none" xmlns="http://www.w3.org/2000/svg">
<g clip-path="url(#clip0_1_4727)">
<path fill-rule="evenodd" clip-rule="evenodd" d="M81.6776 14.9135L75.8073 25.0706L70.7988 25.0906L81.6776 5.97254L92.5157 25.0906H87.4279L81.6776 14.9125V14.9135ZM65.8707 20.6689H71.4802L68.8757 25.0906H61.5644L61.5842 19.7067V6.09008H65.8915L65.8716 20.6689H65.8707ZM50.4862 6.09108C55.8349 6.111 60.162 10.3544 60.1421 15.5998C60.1223 20.8263 55.7952 25.0706 50.4455 25.0706C45.1167 25.0507 40.7896 20.8074 40.7896 15.5609C40.8094 10.3344 45.1366 6.09108 50.4862 6.09108ZM50.4664 20.65C53.3306 20.65 55.6335 18.3898 55.6335 15.5998C55.6544 12.8107 53.3306 10.5307 50.4862 10.5307C47.6408 10.5107 45.3171 12.7908 45.3171 15.5809C45.2972 18.3699 47.621 20.65 50.4654 20.65H50.4664ZM32.8167 14.0907C32.7572 13.3038 32.5559 12.2629 32.2554 11.2618C31.637 9.19403 30.562 7.29308 29.1104 5.70061C28.3487 4.87584 27.4879 4.10885 26.2045 3.20539C25.2262 2.72049 24.2643 2.2029 23.3204 1.65348C22.6996 1.29987 21.9577 0.866565 20.9769 0.552796C19.8138 0.277079 18.625 0.125825 17.4303 0.101565C16.2699 0.0617217 15.1065 0.161331 13.9848 0.376487C12.8026 0.572718 11.8208 0.886487 10.5186 1.20125C7.57299 2.47825 5.28992 4.40369 3.3262 6.95867C-3.525 16.566 2.66568 30.0252 14.1048 31.616C15.9882 31.872 17.8716 31.7734 19.6538 31.361L20.9164 31.0273C20.956 31.0074 21.0165 30.9874 21.0562 30.9874L22.4992 30.4376C22.5786 30.3978 22.6391 30.3778 22.7194 30.339L23.3204 30.0641C24.4736 29.4925 25.5561 28.7871 26.5457 27.9623C25.6449 28.7844 24.6652 29.5147 23.6209 30.1428L23.6804 30.1826C23.8818 30.1228 24.0613 30.0641 24.2616 30.0252C24.2616 30.0252 24.2616 30.339 24.222 30.2802C23.9016 30.5163 24.4025 30.3001 25.0431 29.9655C25.6848 29.6318 26.3057 29.2184 26.866 28.7472C27.6882 28.0599 28.4092 27.3129 29.4308 26.0956C30.4721 24.2678 31.7753 22.676 32.3763 20.5344C32.5767 19.9647 32.7562 19.2973 32.8772 18.609C32.9962 17.9217 33.0775 17.2145 33.0775 16.4873C33.0577 15.7602 32.9774 15.0131 32.8167 14.0907ZM17.9916 30.2414C21.4975 29.6905 24.4421 27.7462 26.8462 25.0936C27.5077 24.1303 28.0284 23.2458 28.6691 22.2836C29.4704 20.3183 29.4109 18.5701 29.6708 17.333C29.9921 15.0918 29.2304 13.2849 28.5897 11.3594C27.6079 9.1192 26.3057 7.44975 24.0216 6.15283C18.2515 2.57686 10.3986 3.57793 6.65262 8.92297C6.63279 8.92297 6.53163 9.06043 6.33129 9.33536C6.59212 8.23567 7.25364 7.58721 7.91416 6.95768C9.87788 5.34699 12.1619 4.06901 14.7664 3.44147C17.7119 3.1267 20.6357 3.44147 23.2599 4.71846C27.1874 6.95768 29.7918 10.4759 30.4523 14.6396V18.4914C29.6311 24.7987 24.222 29.5929 17.9916 30.2414ZM32.3962 15.8976C32.2554 6.66383 23.1003 0.435257 14.1852 1.69332C11.5808 2.34078 8.73536 3.6377 6.71213 5.44561C5.73027 6.09307 5.27009 7.29237 4.28823 8.25459C0.360788 14.012 1.04313 21.3801 5.93061 25.8605C6.55754 26.4831 7.22697 27.0609 7.934 27.5898C3.84788 25.1324 2.00416 21.418 1.36347 16.9007C1.36347 15.289 1.68382 13.6972 2.024 12.0866C4.30905 5.03223 11.5004 -0.0956611 19.3345 1.20125C20.6367 1.51602 21.9389 1.84971 23.2619 2.16448C24.9043 2.81194 26.5268 3.77516 27.8291 5.05315C29.1313 6.32914 30.1131 7.94082 31.095 9.53159C31.7555 10.8096 32.0768 12.4203 32.3972 13.6972C32.4567 14.4244 32.4567 15.1715 32.3972 15.8986L32.3962 15.8976Z" fill="#1D1E25"/>
<path fill-rule="evenodd" clip-rule="evenodd" d="M24.2622 16.036C24.2622 20.0054 20.9368 23.2278 16.8298 23.2278C12.7239 23.2278 9.39746 20.0054 9.39746 16.036C9.39746 12.0676 12.7229 8.84521 16.8298 8.84521C20.9368 8.84521 24.2622 12.0676 24.2622 16.037V16.036Z" fill="white"/>
<path fill-rule="evenodd" clip-rule="evenodd" d="M24.3036 14.8178C24.2034 14.268 24.0428 13.8356 23.8831 13.227C23.2414 11.8903 22.3002 10.8494 21.0575 9.96483C16.41 6.88092 10.019 9.84729 9.33867 15.1136C9.07883 17.1965 9.81968 19.2006 11.1417 20.7336C10.741 20.3202 10.3007 19.8889 10.0002 19.3968L9.96052 19.4367C10.0002 19.5542 10.1609 19.6329 10.2005 19.7505C10.2005 19.7505 10.0399 19.7505 10.0805 19.7305C9.96052 19.5941 10.0607 19.8102 10.2402 20.1041C10.4009 20.3989 10.6012 20.6748 10.8412 20.9298C11.1824 21.3034 11.5424 21.6371 12.1434 22.0893C13.0261 22.5405 13.8066 23.1302 14.8282 23.4051C15.1088 23.4848 15.4292 23.5625 15.7505 23.6213C16.0907 23.681 16.411 23.701 16.772 23.701C17.1122 23.701 17.4732 23.6611 17.9136 23.5814C18.3677 23.5277 18.8165 23.4361 19.2555 23.3075C20.2359 23.0111 21.1391 22.5009 21.9005 21.8134C22.2814 21.4607 22.8229 21.0085 23.2424 20.4188C23.5836 19.7514 23.6232 19.4168 23.7839 19.1219C23.9436 18.8271 24.1439 18.4934 24.2848 18.0412C24.3995 17.5047 24.4666 16.959 24.4851 16.4105C24.4653 15.8607 24.4256 15.3298 24.3046 14.8188L24.3036 14.8178ZM19.5351 11.1641C20.2165 11.5566 20.3167 11.6154 19.9556 11.3604C20.4773 11.4779 20.7977 11.7727 21.118 12.0676C21.8995 12.9521 22.5402 13.993 22.8606 15.1913C23.0411 16.547 22.9002 17.9027 22.32 19.102C21.2787 20.9288 19.6155 22.1471 17.6319 22.4807C17.4117 22.4807 17.1717 22.4807 16.9506 22.5007C17.5119 22.4021 17.8729 22.0484 18.8944 21.6749C19.9953 21.2824 21.238 19.4556 21.84 18.3938C23.6024 15.5051 21.5187 12.8336 19.5351 11.1641ZM15.7694 22.5196C12.7246 22.2058 10.38 19.7106 10.0597 16.8219C10.3394 18.4336 11.3014 19.6708 12.6036 20.7714C13.0648 21.0663 13.7451 21.4787 14.2063 21.7735C14.9878 22.0684 15.448 22.3831 16.2097 22.5206H15.7694V22.5196ZM23.9624 17.2742C23.8236 17.8838 23.6827 18.4725 23.5419 19.0821C23.2414 19.8291 22.8011 20.5951 22.2 21.2038C21.599 21.8134 20.8373 22.2845 20.0766 22.7367C19.4756 23.0505 18.7139 23.2079 18.0931 23.3643C17.7321 23.4041 17.3116 23.2467 16.9506 23.2278C21.3987 23.1093 24.4434 18.9645 23.7829 14.8576C23.4616 13.6593 22.8209 12.6174 22.0394 11.5765C21.719 11.1243 21.0972 10.8494 20.637 10.3971C17.8521 8.64899 14.1666 9.0026 12.0631 11.3016C11.7681 11.6037 11.4935 11.9251 11.2409 12.2638C12.3636 10.6133 14.1666 9.45483 16.3297 9.12014C17.0914 9.10022 17.8729 9.23867 18.6336 9.37613C21.9997 10.3971 24.5039 13.6593 23.9624 17.2752V17.2742Z" fill="#D7DF23"/>
</g>
<defs>
<clipPath id="clip0_1_4727">
<rect width="92.2353" height="31.875" fill="white" transform="translate(0.382812 0.0626221)"/>
</clipPath>
</defs>
</svg>
